<?xml version="1.0" standalone="no"?>
<!DOCTYPE svg PUBLIC "-//W3C//DTD SVG 20010904//EN"
 "http://www.w3.org/TR/2001/REC-SVG-20010904/DTD/svg10.dtd">
<svg version="1.0" xmlns="http://www.w3.org/2000/svg"
 width="1800.000000pt" height="1800.000000pt" viewBox="0 0 1800.000000 1800.000000"
 preserveAspectRatio="xMidYMid meet">
<metadata>
Created by potrace 1.14, written by Peter Selinger 2001-2017
</metadata>
<g transform="translate(0.000000,1800.000000) scale(0.100000,-0.100000)"
fill="#000000" stroke="none">
<path d="M13875 13189 c-138 -12 -219 -20 -235 -24 -8 -3 -40 -7 -70 -10 -30
-4 -91 -13 -135 -21 -44 -7 -93 -16 -110 -19 -16 -3 -61 -12 -100 -21 -38 -9
-81 -18 -95 -20 -114 -22 -444 -121 -650 -196 -881 -322 -1777 -890 -2609
-1653 -185 -170 -538 -518 -748 -738 l-122 -128 -73 69 c-40 38 -89 84 -108
102 -19 18 -53 49 -75 69 -38 35 -120 109 -210 190 -22 20 -74 65 -115 101
-41 36 -80 70 -86 75 -6 6 -35 30 -64 55 -29 25 -58 50 -64 55 -31 28 -318
265 -436 359 -74 59 -143 114 -152 121 -154 125 -696 513 -934 668 -193 126
-235 152 -439 275 -392 235 -713 379 -1095 492 -226 67 -343 95 -550 129 -110
19 -122 20 -225 32 -55 6 -113 13 -130 15 -61 8 -613 11 -690 4 -44 -4 -115
-11 -158 -15 -43 -3 -86 -8 -95 -10 -9 -1 -39 -6 -67 -10 -88 -12 -93 -13
-215 -36 -93 -17 -102 -19 -205 -45 -137 -33 -350 -96 -416 -122 -13 -6 -85
-34 -159 -63 -439 -173 -897 -470 -1195 -776 -115 -118 -138 -144 -279 -323
-6 -8 -22 -33 -36 -55 -13 -22 -27 -42 -30 -45 -25 -19 -260 -459 -260 -486 0
-3 -7 -20 -15 -37 -36 -79 -66 -168 -137 -397 -68 -222 -168 -637 -197 -820
-6 -36 -13 -76 -15 -90 -11 -61 -26 -170 -31 -225 -3 -33 -7 -73 -10 -90 -28
-211 -28 -845 0 -1025 2 -14 7 -50 10 -80 9 -83 26 -188 65 -405 94 -528 312
-1115 593 -1600 265 -456 487 -704 842 -942 408 -274 1004 -491 1560 -568 23
-3 50 -7 61 -9 11 -2 51 -7 89 -11 39 -4 84 -9 100 -11 198 -23 703 -23 905 1
19 2 66 7 103 10 37 4 78 8 90 11 12 2 42 7 67 10 63 8 102 14 120 19 8 2 31
6 50 9 48 7 158 31 255 55 570 141 991 332 1605 729 113 73 443 294 503 337
34 24 89 64 122 87 130 93 603 452 615 467 3 4 48 40 100 81 52 41 97 77 100
80 3 3 32 27 65 55 33 27 62 52 65 55 3 3 48 41 100 85 52 44 100 84 106 90 6
5 42 37 80 70 68 59 124 110 214 191 25 23 57 52 71 65 15 13 69 62 119 109
166 152 175 160 181 160 3 0 51 -49 107 -109 189 -202 577 -585 781 -771 52
-47 99 -90 105 -95 244 -227 698 -576 1051 -809 392 -259 799 -479 1165 -630
91 -38 179 -74 195 -82 94 -40 536 -180 634 -200 14 -3 28 -7 31 -9 4 -2 20
-7 36 -9 50 -10 68 -14 109 -25 22 -5 56 -13 75 -16 19 -3 49 -8 65 -12 17 -3
39 -7 51 -8 11 -2 45 -8 75 -13 30 -6 74 -13 99 -16 25 -3 80 -10 122 -16 253
-32 783 -35 983 -5 63 10 112 16 155 21 25 3 52 7 60 9 8 2 31 7 50 10 134 21
393 85 529 131 65 22 232 84 266 99 465 202 714 364 1005 655 152 151 205 212
335 385 138 183 262 385 375 610 98 195 113 228 182 400 152 380 283 914 323
1310 3 33 8 69 10 80 20 100 28 767 12 955 -76 872 -388 1728 -856 2345 -161
212 -409 471 -591 615 -512 406 -1225 673 -1980 739 -114 10 -563 10 -675 0z
m995 -1603 c52 -3 104 -8 115 -10 11 -2 47 -7 80 -11 132 -15 472 -98 510
-124 6 -4 28 -13 50 -20 42 -13 56 -18 120 -46 490 -215 909 -571 1250 -1060
71 -102 105 -171 153 -310 176 -513 268 -978 266 -1350 0 -96 -4 -129 -25
-240 -6 -27 -12 -61 -15 -75 -3 -14 -7 -33 -10 -42 -3 -9 -6 -25 -8 -35 -37
-188 -177 -519 -303 -713 -108 -165 -288 -372 -418 -480 -239 -197 -481 -336
-768 -441 -45 -17 -89 -32 -97 -34 -8 -2 -35 -10 -60 -18 -48 -16 -235 -63
-285 -72 -16 -3 -66 -12 -111 -20 -45 -8 -108 -17 -140 -20 -32 -3 -66 -8 -74
-10 -85 -23 -741 -23 -830 0 -8 2 -46 6 -83 10 -58 5 -119 15 -312 50 -16 3
-48 11 -70 17 -22 5 -51 12 -65 15 -83 14 -380 112 -534 175 -158 64 -421 196
-577 289 -187 111 -464 300 -609 416 -8 6 -53 42 -100 80 -47 37 -90 72 -96
78 -7 5 -22 19 -35 29 -102 83 -285 244 -389 343 -36 34 -76 71 -90 83 -51 43
-419 412 -560 560 -80 84 -200 210 -267 279 -66 69 -123 129 -125 133 -7 16
818 856 1047 1065 142 130 152 139 221 198 31 28 62 55 68 60 19 17 228 189
291 238 33 26 65 52 72 57 67 55 386 274 503 345 19 12 54 34 77 48 24 15 45
27 47 27 3 0 29 14 58 31 259 153 737 346 978 394 8 2 42 10 75 18 73 19 206
45 260 52 22 3 51 7 65 10 13 2 56 7 95 11 38 3 79 8 89 10 11 2 79 7 150 10
72 4 132 7 133 8 4 3 200 -2 283 -8z m-11115 -50 c55 -4 111 -9 125 -11 14 -2
48 -6 75 -10 114 -13 287 -47 395 -76 85 -23 285 -86 315 -99 11 -5 81 -34
155 -65 180 -76 440 -212 590 -309 19 -13 89 -58 155 -101 185 -119 438 -306
670 -494 159 -129 180 -146 185 -151 3 -3 48 -41 100 -85 310 -261 614 -542
999 -922 l214 -211 -200 -199 c-400 -397 -653 -629 -1073 -987 -14 -11 -74
-62 -135 -111 -980 -803 -1695 -1159 -2490 -1240 -124 -13 -644 -14 -705 -2
-14 3 -62 8 -107 12 -46 3 -91 8 -100 9 -10 2 -40 7 -68 11 -172 24 -349 70
-530 136 -111 41 -415 186 -415 198 0 4 -15 15 -33 26 -17 10 -38 25 -46 33
-7 7 -20 11 -28 8 -8 -3 -12 -2 -9 3 3 5 -22 30 -57 57 -34 26 -80 65 -102 85
-22 20 -65 59 -95 86 -272 242 -505 608 -600 943 -204 716 -253 1128 -189
1587 42 301 188 624 406 894 64 80 268 291 343 355 409 349 895 559 1415 610
33 3 70 7 83 9 13 2 91 7 175 11 84 3 153 7 154 8 6 5 336 -2 428 -8z"/>
</g>
</svg>
